<svg xmlns="http://www.w3.org/2000/svg" xmlns:xlink="http://www.w3.org/1999/xlink" viewBox="0 0 680 199"><defs><style>.cls-1{fill:#666;}.cls-2{font-size:108px;font-family:Rubik-Bold, Rubik;font-weight:700;}.cls-3{letter-spacing:-0.03em;}.cls-4{fill:url(#linear-gradient);}.cls-5{fill:#fff;}</style><linearGradient id="linear-gradient" x1="451.18" y1="69.62" x2="708.88" y2="214.27" gradientUnits="userSpaceOnUse"><stop offset="0.01" stop-color="#f15a24"/><stop offset="0.39" stop-color="#f89534"/><stop offset="0.6" stop-color="#fbb03b"/></linearGradient></defs><g id="Layer_1" data-name="Layer 1"><rect class="cls-1" width="680" height="199"/></g><g id="Planet"><text class="cls-2" transform="translate(337.33 135.01)"><tspan xml:space="preserve">M    </tspan><tspan class="cls-3" x="181.87" y="0" xml:space="preserve">  </tspan><tspan x="222.04" y="0">V</tspan></text><g id="Layer_3" data-name="Layer 3"><circle class="cls-4" cx="495.5" cy="94.5" r="60.5"/></g></g><g id="Layer_4" data-name="Layer 4"><path class="cls-5" d="M49.81,54.11h27c13.82,0,23.33,7.66,23.33,21.06,0,13.6-9.4,21.6-24.09,21.6H55.75v32.94H49.81Zm5.94,37.26H76.59c12.2,0,17.28-6.48,17.28-16,0-10.15-6.7-15.87-16.85-15.87H55.75Z"/><path class="cls-5" d="M113.09,129.71V50.11h5.41v79.6Z"/><path class="cls-5" d="M172.5,119.45a62.42,62.42,0,0,0,.75,10.26h-5.18c-.43-1.3-.76-3.67-1-8.32-1.84,4-6.59,9.61-17.72,9.61-12.52,0-17.92-8.1-17.92-16.2,0-11.88,9.18-17.28,25.38-17.28H167.1V92c0-5.4-1.62-12.63-13.94-12.63-10.9,0-12.52,5.72-13.71,10.15h-5.4c.65-5.94,4.32-15.12,19.22-15.12,12.31,0,19.23,5.18,19.23,17.06Zm-5.3-17.28H156.62c-12,0-19.44,3.13-19.44,12.42,0,6.8,4.86,11.45,12.42,11.45,15.44,0,17.6-10.27,17.6-21.93Z"/><path class="cls-5" d="M190.31,89.31c0-4.75,0-9.28-.1-13.6h5.29c.22,1.72.32,8.74.22,10.26,2.37-5.51,6.8-11.56,17.92-11.56,9.62,0,18.15,5.4,18.15,20.3v35h-5.4V95.58c0-9.61-4-15.88-13.39-15.88-12.86,0-17.28,10.69-17.28,22.47v27.54h-5.41Z"/><path class="cls-5" d="M250.69,103.35c.1,13.94,7.12,22.58,17.49,22.58,10.15,0,13.61-5.73,15.55-10.16h5.51C287,122.9,281.25,131,268,131c-16.42,0-22.79-14.15-22.79-27.86,0-15.45,7.67-28.73,23.43-28.73,16.64,0,21.93,14.36,21.93,24.52,0,1.51,0,3-.11,4.42Zm34.23-4.75c-.11-10.69-5.94-19.11-16.52-19.11-11.13,0-16.2,7.77-17.39,19.11Z"/><path class="cls-5" d="M296.48,75.71h10V58.86h5.4V75.71h12.85v5.07H311.92v35.1c0,6.05,1.3,9.51,6.48,9.51a20.46,20.46,0,0,0,5.62-.65v4.75a18.9,18.9,0,0,1-6.7,1c-6.91,0-10.8-3.45-10.8-12.09V80.78h-10Z"/></g></svg>